<?xml version="1.0" encoding="iso-8859-1"?>
<!-- Generator: Adobe Illustrator 18.1.1, SVG Export Plug-In . SVG Version: 6.00 Build 0)  -->
<svg version="1.1" id="Capa_1" xmlns="http://www.w3.org/2000/svg" xmlns:xlink="http://www.w3.org/1999/xlink" x="0px" y="0px"
	 viewBox="0 0 468.173 468.173" style="enable-background:new 0 0 468.173 468.173;" xml:space="preserve">
<g>
	<g>
		<path style="fill:#010002;" d="M278.026,323.021l-3.048,7.974c-7.145,11.673-10.21,27.385-10.21,44.715
			c0,65.175,3.869,84.448,18.948,90.113l1.796-84.822c0-3.601,2.674-7.096,6.649-7.096h2.349c3.975,0,6.641,3.951,6.641,7.641
			l7.015,86.626c1.805-0.008,3.65-0.016,5.601-0.008c3.414,0,6.568-0.024,9.519-0.089l6.999-87.756
			c-0.016-3.373,2.658-6.405,6.633-6.405h2.349c3.975,0,6.649,3.95,6.649,7.641l1.74,82.253
			c15.095-8.112,15.111-31.181,15.111-96.356c0-17.574-3.129-31.523-10.494-41.228c-2.43-5.34-5.332-11.689-8.421-18.379
			c-2.122-4.593-4.308-9.307-6.495-13.973c-2.658-5.674-5.275-11.169-7.706-16.192l6.926-265.991C336.576,5.414,323.229,0,316.953,0
			h-10.331C300.347,0,287,5.901,287,12.177l7.015,269.056l-7.608,19.891L278.026,323.021z M313.271,19.858
			c6.909,0,12.51,5.601,12.51,12.51s-5.601,12.51-12.51,12.51c-6.909,0-12.51-5.601-12.51-12.51S306.362,19.858,313.271,19.858z"/>
		<path style="fill:#010002;" d="M105.407,368.322c0,36.985,21.858,95.007,58.843,95.007s58.843-58.014,58.843-95.007
			c0-30.694-15.095-56.51-41.358-64.419L189.4,10.104C189.4,3.934,176.264,0,170.094,0h-10.161c-6.17,0-19.305,3.934-19.305,10.104
			l7.657,293.385C121.087,310.845,105.407,337.043,105.407,368.322z M164.25,19.858c6.909,0,12.51,5.601,12.51,12.51
			s-5.601,12.51-12.51,12.51c-6.909,0-12.51-5.601-12.51-12.51C151.732,25.459,157.341,19.858,164.25,19.858z"/>
	</g>
</g>
<g>
</g>
<g>
</g>
<g>
</g>
<g>
</g>
<g>
</g>
<g>
</g>
<g>
</g>
<g>
</g>
<g>
</g>
<g>
</g>
<g>
</g>
<g>
</g>
<g>
</g>
<g>
</g>
<g>
</g>
</svg>
