<?xml version="1.0" encoding="utf-8"?>
<!-- Svg Vector Icons : http://www.onlinewebfonts.com/icon -->
<!DOCTYPE svg PUBLIC "-//W3C//DTD SVG 1.1//EN" "http://www.w3.org/Graphics/SVG/1.1/DTD/svg11.dtd">
<svg version="1.1" xmlns="http://www.w3.org/2000/svg" xmlns:xlink="http://www.w3.org/1999/xlink" x="0px" y="0px" viewBox="0 0 1000 1000" enable-background="new 0 0 1000 1000" xml:space="preserve" fill="white">
<metadata> Svg Vector Icons : http://www.onlinewebfonts.com/icon </metadata>
<g><g><g><path d="M622.5,790.9c-16.9,0-30.6,13.6-30.6,30.9v60.6c0,17.1,13.6,30.9,30.6,30.9c16.9,0,30.6-13.6,30.6-30.9v-60.6C653.1,804.8,639.6,790.9,622.5,790.9z"/><path d="M377.5,790.9c-16.9,0-30.6,13.6-30.6,30.9v60.6c0,17.1,13.6,30.9,30.6,30.9c16.9,0,30.6-13.6,30.6-30.9v-60.6C408.1,804.8,394.5,790.9,377.5,790.9z"/><path d="M745,729.7c-16.9,0-30.6,13.6-30.6,30.9v60.6c0,17.1,13.6,30.9,30.6,30.9c16.9,0,30.6-13.6,30.6-30.9v-60.6C775.6,743.5,762.1,729.7,745,729.7z"/><path d="M500,729.7c-16.9,0-30.6,13.6-30.6,30.9v60.6c0,17.1,13.6,30.9,30.6,30.9c16.9,0,30.6-13.6,30.6-30.9v-60.6C530.6,743.5,517.1,729.7,500,729.7z"/><path d="M255,729.7c-16.9,0-30.6,13.6-30.6,30.9v60.6c0,17.1,13.6,30.9,30.6,30.9c16.9,0,30.6-13.6,30.6-30.9v-60.6C285.6,743.5,272,729.7,255,729.7z"/><path d="M854.8,338.1c-28.4-75.4-101.1-129-186.4-129c-19.6,0-38.6,2.8-56.5,8.1C563.3,138.8,476.5,86.6,377.5,86.6c-150.2,0-272.4,120.2-275.6,269.6C47,388,10,447.4,10,515.3c0,101.4,82.3,183.8,183.8,183.8h612.5c101.4,0,183.8-82.5,183.8-183.8C990,430.6,932.7,359.3,854.8,338.1z M806.3,637.8H193.7c-67.5,0-122.4-54.8-122.4-122.5c0-57.9,40.3-106.6,94.5-119.3c-1.8-11-2.7-22.3-2.7-33.8c0-118.4,96-214.4,214.4-214.4c96.8,0,178.7,64.2,205.2,152.4c23.6-18.7,53.3-29.9,85.7-29.9c70.9,0,129.4,53.6,137,122.5h0.9c67.5,0,122.4,54.8,122.4,122.5C928.8,582.8,874,637.8,806.3,637.8z"/></g></g><g></g><g></g><g></g><g></g><g></g><g></g><g></g><g></g><g></g><g></g><g></g><g></g><g></g><g></g><g></g></g>
</svg>