<?xml version="1.0" encoding="utf-8"?>
<!-- Svg Vector Icons : http://www.onlinewebfonts.com/icon -->
<!DOCTYPE svg PUBLIC "-//W3C//DTD SVG 1.1//EN" "http://www.w3.org/Graphics/SVG/1.1/DTD/svg11.dtd">
<svg version="1.1" xmlns="http://www.w3.org/2000/svg" xmlns:xlink="http://www.w3.org/1999/xlink" x="0px" y="0px" viewBox="0 0 1000 1000" enable-background="new 0 0 1000 1000" xml:space="preserve" fill="white">
<metadata> Svg Vector Icons : http://www.onlinewebfonts.com/icon </metadata>
<g><g transform="translate(0.000000,511.000000) scale(0.100000,-0.100000)"><path d="M4337.5,4976c-636.5-148.4-1171.4-695.1-1288.6-1312c-23.4-125-39-1058.2-39-2331.2V-787.6l-187.4-246c-312.4-413.9-515.4-980.1-515.4-1437c0-558.4,289-1233.9,702.9-1640c456.9-453,999.6-675.5,1640-679.5c1046.5,0,1944.6,683.3,2249.2,1714.2c89.8,312.4,89.8,898.1,0,1210.5c-93.7,312.4-230.4,581.8-437.3,847.4c-156.2,199.1-171.8,238.2-171.8,437.3v218.7h566.2c601.4,0,726.3,27.3,796.6,183.5c62.5,132.7,54.6,183.5-39.1,300.6l-78.1,101.5h-624.8h-620.9v390.5v390.5h620.9h624.8l78.1,101.5c109.3,140.6,101.5,234.3-31.3,371l-113.2,113.2h-589.7h-589.6V1981v390.5h566.2c601.4,0,726.3,27.3,796.6,183.5c62.5,140.6,54.6,199.1-54.7,304.6c-89.8,93.7-109.3,97.6-695,97.6h-601.4l-23.4,363.1c-11.7,195.2-50.8,449.1-85.9,554.5C5926.7,4651.9,5091.1,5147.8,4337.5,4976z M5067.7,4327.8c82-39,230.4-160.1,331.9-269.4c308.5-331.9,304.6-281.2,304.6-2854.4v-2249.2l195.2-214.8c659.9-714.6,648.2-1768.9-19.5-2440.5c-683.3-679.5-1776.7-679.5-2460,0c-675.5,679.4-687.3,1702.5-23.4,2448.3l199.2,218.7v2280.4c3.9,1811.8,15.6,2307.7,54.7,2424.9C3868.9,4280.9,4544.4,4597.2,5067.7,4327.8z"/><path d="M4415.6,1395.2c-74.2-74.2-78.1-128.9-78.1-1464.3v-1390.1l-125-66.3c-378.8-203.1-585.7-535-585.7-929.4c-3.9-402.2,199.2-730.2,570.1-925.4c253.8-132.8,644.3-121.1,913.7,31.2c335.8,183.5,515.4,503.7,515.4,913.7c0,390.5-253.8,773.2-605.2,921.6l-136.7,54.6V-73c0,1339.4-3.9,1394-78.1,1468.2c-43,42.9-128.9,78.1-195.2,78.1C4544.4,1473.3,4458.5,1438.2,4415.6,1395.2z M4927.1-2154.2c93.7-93.7,113.2-148.4,113.2-296.8c0-156.2-19.5-203.1-136.7-320.2c-125-125-156.2-136.7-296.8-117.1c-304.6,39-480.3,324.1-371,589.6C4310.1-2123,4439-2041,4642-2041C4778.7-2041,4833.4-2064.4,4927.1-2154.2z"/></g></g>
</svg>